<?xml version="1.0" encoding="utf-8"?>
<!DOCTYPE svg PUBLIC "-//W3C//DTD SVG 1.1//EN" "http://www.w3.org/Graphics/SVG/1.1/DTD/svg11.dtd">
<svg version="1.1" id="Layer_1" xmlns="http://www.w3.org/2000/svg" xmlns:xlink="http://www.w3.org/1999/xlink" x="0px" y="0px"
	 width="120px" height="107.2px" viewBox="0 0 120 107.2" style="enable-background:new 0 0 120 107.2;" xml:space="preserve">
<g>
	<g>
		<path style="fill:#F05623;" d="M5.3,64.2C1.6,39.3,17.8,13.8,53.5,11.1c27.9-2.1,58.7,1.6,61.6,37.2c2,25.1-17.6,50.8-48.2,53.1
			C30.2,104.1,9,89.1,5.3,64.2z"/>
		<path style="fill:#FFFFFF;" d="M5.3,64.2c0,0-0.1-1.3-0.4-3.6c-0.2-2.4-0.2-5.9,0.3-10.2c0.7-4.3,2.1-9.6,5.1-15
			c3-5.4,7.6-10.9,13.9-15.2c6.3-4.3,14.2-7.4,22.8-8.7c2.2-0.3,4.4-0.5,6.6-0.8c2.2-0.1,4.5-0.3,6.8-0.3c4.6-0.1,9.2,0,14,0.4
			c4.7,0.5,9.5,1.3,14.2,2.7c4.7,1.4,9.2,3.6,13.1,6.7c2,1.5,3.8,3.3,5.3,5.3c1.6,1.9,2.9,4.1,4,6.4c1.1,2.3,1.9,4.7,2.6,7.1
			c0.6,2.5,1.1,4.9,1.4,7.5l0.2,1.9l0.1,1.9l0.1,1.9c0,0.3,0,0.6,0,0.9l-0.1,1l-0.3,3.8l-0.7,3.7c-1.1,4.9-2.9,9.7-5.3,14.1
			c-2.5,4.3-5.6,8.3-9.1,11.7c-3.6,3.3-7.6,6.2-11.8,8.5c-4.3,2.1-8.7,3.9-13.2,4.8c-4.5,1.1-9,1.3-13.3,1.5
			c-8.7,0.3-17-0.6-24.4-2.6C30,97.4,23.7,94,19.1,90c-4.7-4-7.8-8.6-9.8-12.5c-1.9-4-2.9-7.4-3.3-9.7C5.5,65.4,5.3,64.2,5.3,64.2z
			 M5.4,64.2c0,0,0.2,1.2,0.7,3.6c0.5,2.3,1.5,5.6,3.4,9.6c2,3.9,5.1,8.4,9.9,12.3c4.7,3.9,11,7.2,18.2,9c7.3,1.9,15.5,2.7,24.1,2.4
			c1.1-0.1,2.2-0.1,3.3-0.2c0.5,0,1.1-0.1,1.7-0.1c0.5,0,1.1-0.1,1.6-0.2c1.1-0.1,2.2-0.3,3.3-0.4l0.8-0.1l0.8-0.2l1.6-0.4
			c1.1-0.3,2.2-0.5,3.3-0.8c1.1-0.4,2.2-0.7,3.3-1.1c1.1-0.3,2.2-0.8,3.2-1.3c1-0.5,2.1-0.9,3.2-1.5c4.1-2.2,8-5,11.6-8.2
			c3.5-3.4,6.5-7.2,9-11.4c2.4-4.3,4.3-8.9,5.4-13.8l0.7-3.7l0.3-3.7l0.1-0.9c0-0.3,0-0.6,0-0.9l0-1.9l0-1.9l-0.2-1.9
			c-0.2-2.5-0.7-5-1.3-7.4c-0.7-2.4-1.5-4.8-2.6-7c-1.1-2.2-2.4-4.4-3.9-6.3c-1.6-1.9-3.3-3.7-5.2-5.3c-3.9-3-8.4-5.2-13.1-6.6
			c-4.6-1.4-9.4-2.2-14.1-2.6c-4.7-0.4-9.4-0.4-13.9-0.2c-2.3,0.1-4.5,0.2-6.7,0.4c-2.2,0.3-4.4,0.5-6.5,0.8
			c-8.5,1.4-16.3,4.4-22.5,8.5c-6.3,4.1-11,9.4-14,14.7C7.7,40.8,6.2,46,5.4,50.4C4.8,54.7,4.8,58.2,5,60.6
			C5.3,62.9,5.4,64.2,5.4,64.2z"/>
	</g>
	<path style="fill:#638B3E;stroke:#FFFFFF;stroke-width:0.5;stroke-miterlimit:10;" d="M59.4,10c6.3-3.2,18.8,2,18.8,2
		s0.4,12.2-5.5,16.1c-1.4,1-3.8,1.8-6.2,2c0.2,0.2,0.4,0.3,0.6,0.4c5.7,4.3,4.1,17.1,4.1,17.1s-12.9,4.4-19,0.6
		c-1.7-1.1-3.6-3.2-4.6-5.7c-1.5,2.4-4.2,4.3-7.8,4.9c-7,1.3-16.6-7.8-16.6-7.8S27.9,29,34.5,26.1c0.7-0.3,1.5-0.6,2.2-0.7
		c-1.3-0.7-2.4-1.8-3.2-3.6c-2.7-6,2.1-16.6,2.1-16.6s14-1,18.2,4.1c0.9,1.1,1.5,2.2,1.8,3.5C56.5,11.8,57.7,10.9,59.4,10z"/>
	<path style="fill:#557334;stroke:#557334;stroke-miterlimit:10;" d="M51.7,21.2c0.3,2.3-1.2,4.5-3.4,4.7l0,0
		c-2.4,0.7-4.2-1.4-4.5-3.7l0-0.3c0.3-2.2,1.2-4.5,3.4-4.7l0,0c3.8,0.9,4.2,1.4,4.5,3.7L51.7,21.2z"/>
</g>
</svg>
